# xmcd
#
# Track frame offsets:
#	150
#	14865
#	28150
#	40122
#	53540
#	67362
#	78300
#	92170
#	104117
#	120697
#	134027
#	148190
#	162697
#	173572
#	186442
#	199697
#	213650
#	227312
#	240005
#	255790
#	267380
#	282297
#	295447
#	310185
#	321135
#
# Disc length: 4534 seconds
#
# Revision: 0
# Processed by: cddbd v1.5.2PL0 Copyright (c) Steve Scherf et al.
# Submitted via: EasyCDDAExtractor 16.0.6.1
#
DISCID=7d11b419
DTITLE=Συλλογικός δίσκος - Τα σούπερ λούμπεν 1
DYEAR=1996
DGENRE=Λαϊκή
TTITLE0=Κανάκη Νίντα - Τα μαξιλάρια μας τα δυό [Τ. Εσδρά-Ν. Κανάκη]
TTITLE1=Χατζηαντωνίου Μιχάλης-Ξιάρχου Δ. - Όσα ξέρει ο νοικοκύρης [Σ. Κάξου-Ν.
TTITLE1=Κανάκη-Χ. Βασιλειάδη]
TTITLE2=Ξενητεμένος Ι. - Ο ταξιτζής [Ι. Λεωτσάκου]
TTITLE3=Βάγιας Περικλής - Έσπασε η στριμένη σκάλα [Α. Πλωμαρίτη-Ι. Κωνσταντινί
TTITLE3=δη]
TTITLE4=Πολύχρονος Κ. - Μη με παιδεύεις, μη με κουράζεις [Δ. Λάγιου]
TTITLE5=Πατσάης Μ.-Κανάκη Ν. - Μού 'πες λόγια πικραμένα [Ν. Κανάκη-Τ. Εσδρά]
TTITLE6=Μπούρας Γιώργος-Λιαδάκης Σ. - Ο τουρισμός και η Μυτιλήνη [Γ. Μπούρα-Γ.
TTITLE6=Μουφλουζέλη]
TTITLE7=Γιαννάκος Π. - Ο γερο κόκκορας [Π. Γιαννακού-Κ. Κοφινιώτη]
TTITLE8=Βάγιας Περικλής - Ο γιαουρτάς [Α. Πλωμαρίτη-Ι. Κωνσταντινίδη]
TTITLE9=Μπαξεβάνης Γ. - Η γυναίκα είναι λαχείο [Ι. Λεωτσάκου]
TTITLE10=Σαφαρίκας Ι. - Δεν τα καίω τα λεφτά μου [Ι. Λεωτσάκου]
TTITLE11=Θρακιώτης Ν. - Το τραίνο φεύγει [Τ. Εσδρά]
TTITLE12=Μαρής Δ.-Φοίβου Α. - Ο Γρηγόρης [Αγριανίτη]
TTITLE13=Μπούρας Γιώργος-Αρβανιτάκης Σ. - Ρομαντικά όταν με φιλάς [Γ. Μπούρα-Μ
TTITLE13=Πολίτη]
TTITLE14=Μπούρας Γιώργος-Πάνος. - Στις διακοπές σε γνώρισα [Γ. Μπούρα-Μ. Πολίτ
TTITLE14=η]
TTITLE15=Ιωαννίδης Πάνος-Φιλιππιδάκη Τζένη - Αντίο γλυκειά μου αγάπη [Π. Ιωανν
TTITLE15=ίδη-Ε. Φυλακτού]
TTITLE16=Μπούρας Γιώργος-Μαρίνος Π. - Το ζιζάνιο [Γ. Μπούρα-Μ. Πολίτη]
TTITLE17=Ιωαννίδης Πάνος-Φιλιππιδάκη Τζένη - Είσαι το άστρο της αυγής [Τ. Εσδρ
TTITLE17=ά]
TTITLE18=Γουδής Τ.-Ανδρεάτου Δ. - Λάμπεις σαν άστρο [Ι. Καλονάρου]
TTITLE19=Μανιατάκης Κώστας - Η δίαιτα [Α. Πλωμαρίτη-Ι. Βελλά]
TTITLE20=Παντέλος Νίκος - Δοσατζής [Ν. Γούναρη-Χ. Βασιλειάδη]
TTITLE21=Βάγιας Περικλής - Τυροπιτάς [Α. Πλωμαρίτη-Ι. Κωνσταντινίδη]
TTITLE22=Βάγιας Περικλής - Αμάν η γκρίνια σου [Α. Πλωμαρίτη-Μ. Πορτοκάλη]
TTITLE23=Αθανασιάδης Α. - Ο πενηντάρης [Αγριανίτη-Ν. Τσούμα]
TTITLE24=Μανιατάκης Κώστας - Η Ερμιόνη [Κ. Μανιατάκη]
EXTD=
EXTT0=
EXTT1=
EXTT2=
EXTT3=
EXTT4=
EXTT5=
EXTT6=
EXTT7=
EXTT8=
EXTT9=
EXTT10=
EXTT11=
EXTT12=
EXTT13=
EXTT14=
EXTT15=
EXTT16=
EXTT17=
EXTT18=
EXTT19=
EXTT20=
EXTT21=
EXTT22=
EXTT23=
EXTT24=
PLAYORDER=
